HIERARCHY
ROOT Hips
{
	OFFSET 0.000000 0.000000 0.000000 
	CHANNELS 6 Xposition Yposition Zposition Zrotation Yrotation Xrotation
	JOINT LeftUpLeg
	{
		OFFSET 1.363060 -1.794630 0.839290 
		CHANNELS 3 Zrotation Yrotation Xrotation
		JOINT LeftLeg
		{
			OFFSET 2.448110 -6.726130 0.000000 
			CHANNELS 3 Zrotation Yrotation Xrotation
			JOINT LeftFoot
			{
				OFFSET 2.562200 -7.039590 0.000000 
				CHANNELS 3 Zrotation Yrotation Xrotation
				JOINT LeftToeBase
				{
					OFFSET 0.157640 -0.433110 2.322550 
					CHANNELS 3 Zrotation Yrotation Xrotation
					End Site
					{
						OFFSET 0.000000 0.000000 0.000000 
					}
				}
			}
		}
	}
	JOINT RightUpLeg
	{
		OFFSET -1.305520 -1.794630 0.839290 
		CHANNELS 3 Zrotation Yrotation Xrotation
		JOINT RightLeg
		{
			OFFSET -2.542530 -6.985550 0.000000 
			CHANNELS 3 Zrotation Yrotation Xrotation
			JOINT RightFoot
			{
				OFFSET -2.568260 -7.056230 0.000000 
				CHANNELS 3 Zrotation Yrotation Xrotation
				JOINT RightToeBase
				{
					OFFSET -0.164730 -0.452590 2.363150 
					CHANNELS 3 Zrotation Yrotation Xrotation
					End Site
					{
						OFFSET 0.000000 0.000000 0.000000 
					}
				}
			}
		}
	}
	JOINT Spine
	{
		OFFSET 0.028270 2.035590 -0.193380 
		CHANNELS 3 Zrotation Yrotation Xrotation
		JOINT Spine1
		{
			OFFSET 0.056720 2.048850 -0.042750 
			CHANNELS 3 Zrotation Yrotation Xrotation
			JOINT Neck1
			{
				OFFSET -0.054170 1.746240 0.172020 
				CHANNELS 3 Zrotation Yrotation Xrotation
				JOINT Head
				{
					OFFSET 0.104070 1.761360 -0.123970 
					CHANNELS 3 Zrotation Yrotation Xrotation
					End Site
					{
						OFFSET 0.000000 0.000000 0.000000 
					}
				}
			}
			JOINT LeftArm
			{
				OFFSET 3.362410 1.200890 -0.311210 
				CHANNELS 3 Zrotation Yrotation Xrotation
				JOINT LeftForeArm
				{
					OFFSET 4.983000 -0.000000 -0.000000 
					CHANNELS 3 Zrotation Yrotation Xrotation
					JOINT LeftHand
					{
						OFFSET 3.483560 -0.000000 -0.000000 
						CHANNELS 3 Zrotation Yrotation Xrotation
						JOINT LeftHandIndex1
						{
							OFFSET 0.715260 -0.000000 -0.000000 
							CHANNELS 3 Zrotation Yrotation Xrotation
							End Site
							{
								OFFSET 0.000000 0.000000 0.000000 
							}
						}
					}
				}
			}
			JOINT RightArm
			{
				OFFSET -3.136600 1.374050 -0.404650 
				CHANNELS 3 Zrotation Yrotation Xrotation
				JOINT RightForeArm
				{
					OFFSET -5.241900 -0.000000 -0.000000 
					CHANNELS 3 Zrotation Yrotation Xrotation
					JOINT RightHand
					{
						OFFSET -3.444170 -0.000000 -0.000000 
						CHANNELS 3 Zrotation Yrotation Xrotation
						JOINT RightHandIndex1
						{
							OFFSET -0.622530 -0.000000 -0.000000 
							CHANNELS 3 Zrotation Yrotation Xrotation
							End Site
							{
								OFFSET 0.000000 0.000000 0.000000 
							}
						}
					}
				}
			}
		}
	}
}
MOTION
Frames: 9
Frame Time: 0.041667
1.253911 17.361687 35.121700 178.543109 2.501898 -171.895842 -17.728007 -24.588419 -32.973062 1.398426 13.414676 31.921288 0.434462 16.357106 9.886903 0.964900 -6.254100 -17.523600 35.430956 0.098142 7.768794 -2.532999 -10.039922 34.198209 -0.557307 -13.388298 2.975922 -1.521700 7.789300 -22.075800 -1.010665 8.507688 -3.385244 -1.678197 4.330258 9.349343 6.546451 -10.476711 13.174938 -1.217200 -3.668700 25.784100 -63.020594 42.408104 60.721953 107.842591 -60.952090 -70.517937 1.321792 -0.240633 15.212896 -7.125000 0.000000 0.000000 90.827789 4.498042 56.943869 -121.815241 52.476477 -80.015638 0.252179 -1.557980 6.489277 7.125000 0.000000 0.000000 
1.239792 17.375699 34.798248 178.370552 2.256581 -171.832357 -18.077488 -24.755252 -32.868534 1.199537 13.098315 30.943618 0.556934 16.524960 10.905714 1.107800 -6.687300 -18.792200 35.049818 -0.599847 8.220371 -2.628730 -10.087453 34.589122 -0.590635 -13.790393 4.219771 -1.426700 7.553000 -21.364400 -1.013693 8.463716 -3.395178 -1.505805 4.281772 9.504732 6.609393 -10.522085 13.261799 -1.080800 -3.733500 26.028500 -62.755166 42.885808 60.814637 108.749202 -60.847752 -71.303305 1.328512 -0.243299 15.073969 -7.125000 0.000000 0.000000 90.480969 4.343252 57.259171 -122.256339 52.344014 -80.492893 0.253165 -1.529039 6.830538 7.125000 0.000000 0.000000 
1.223213 17.380192 34.475652 178.239499 2.048164 -171.794292 -18.547198 -24.624439 -32.900583 1.151764 13.017235 30.711601 0.668581 16.099893 11.615612 0.800000 -5.708800 -15.941800 34.679329 -1.094447 8.292916 -2.849987 -10.348052 35.653436 -0.626587 -14.481113 5.273910 -1.278800 7.166700 -20.210000 -1.032560 8.509870 -3.441182 -1.513431 4.310394 9.413972 6.611795 -10.641226 13.363406 -1.106000 -3.781100 25.945600 -61.978487 43.446319 61.311075 109.475295 -60.761903 -71.923396 1.383733 -0.288883 15.526015 -7.125000 0.000000 0.000000 90.383170 3.704126 57.421643 -122.672369 52.222669 -80.901792 0.237887 -1.502485 7.012385 7.125000 0.000000 0.000000 
1.200216 17.351419 34.167067 178.204552 2.070674 -171.936554 -19.364405 -23.858573 -32.291160 1.153443 12.921241 30.565834 0.730996 14.262773 11.458536 1.289700 -7.195900 -20.296900 34.393271 -1.307715 8.422846 -3.096184 -10.625017 36.796131 -0.702035 -14.829657 6.964430 -1.079000 6.602600 -18.543400 -1.051490 8.623185 -3.459489 -1.540752 4.373332 9.344307 6.585131 -10.878001 13.557184 -1.116400 -3.903000 26.160100 -61.441026 43.596765 61.893807 110.402436 -60.604133 -72.747428 1.376167 -0.282475 15.303071 -7.125000 0.000000 0.000000 90.345342 2.902074 57.287387 -122.843482 52.188316 -81.042190 0.228421 -1.485991 7.266866 7.125000 0.000000 0.000000 
1.178396 17.325962 33.855381 178.127842 2.018344 -172.052863 -20.109133 -23.212818 -31.985579 1.202108 12.945316 30.744633 0.780441 13.135897 11.595441 1.448900 -7.608900 -21.532200 34.063146 -1.555890 8.393343 -3.400991 -10.977148 38.207088 -0.774643 -15.297442 8.337983 -0.927700 6.136000 -17.179500 -1.066694 8.673693 -3.480090 -1.577990 4.405971 9.297501 6.571648 -10.989645 13.696619 -1.114200 -3.968500 26.305300 -60.973113 43.835894 62.319020 111.241004 -60.464886 -73.487272 1.384671 -0.288331 15.262303 -7.125000 0.000000 0.000000 90.279321 2.176747 57.282552 -123.032273 52.144023 -81.203253 0.220684 -1.469085 7.495859 7.125000 0.000000 0.000000 
1.154437 17.286707 33.547973 178.070513 1.997275 -172.238656 -20.963499 -22.342669 -31.597522 1.316849 13.063245 31.252820 0.805569 12.092556 11.689902 1.502500 -7.742200 -21.933600 33.740283 -1.709557 8.220058 -3.775292 -11.408382 39.916444 -0.861229 -15.760555 9.736551 -0.773900 5.617000 -15.677000 -1.081173 8.705273 -3.499529 -1.675679 4.437563 9.219968 6.545189 -11.053079 13.831678 -1.123100 -4.013700 26.465000 -60.599952 43.993591 62.697684 112.016257 -60.322167 -74.177328 1.390676 -0.291576 15.227659 -7.125000 0.000000 0.000000 90.257129 1.343663 57.227307 -123.116877 52.133478 -81.244698 0.215217 -1.457242 7.711641 7.125000 0.000000 0.000000 
1.128659 17.234724 33.244844 178.037966 1.991946 -172.491220 -21.888330 -21.284902 -31.100487 1.479913 13.239278 31.985535 0.802262 11.281843 11.699374 1.401000 -7.487500 -21.167800 33.424735 -1.822893 7.969566 -4.191449 -11.872453 41.784589 -0.958104 -16.276758 11.115206 -0.630800 5.081800 -14.142000 -1.097068 8.715378 -3.518159 -1.842949 4.467740 9.114422 6.513121 -11.085822 13.952800 -1.134400 -4.045300 26.634500 -60.315412 44.054138 63.022083 112.680435 -60.184113 -74.777980 1.396246 -0.292646 15.206767 -7.125000 0.000000 0.000000 90.288657 0.413216 57.105583 -123.092521 52.158088 -81.161499 0.213623 -1.451926 7.940138 7.125000 0.000000 0.000000 
1.101277 17.170761 32.945031 178.023702 1.995813 -172.804206 -22.839968 -20.102611 -30.528023 1.706906 13.495537 33.004208 0.743619 10.741541 11.316871 1.211700 -6.983000 -19.665100 33.107006 -1.901140 7.613809 -4.661012 -12.379228 43.860614 -1.051866 -16.930100 12.334360 -0.507200 4.565200 -12.672500 -1.108089 8.698636 -3.533144 -2.049280 4.489324 8.998116 6.467266 -11.059801 14.056431 -1.164700 -4.047600 26.788600 -60.171305 44.031542 63.250472 113.205061 -60.061675 -75.256963 1.407006 -0.297113 15.262177 -7.125000 0.000000 0.000000 90.339177 -0.600902 56.935784 -122.960969 52.218643 -80.961984 0.216359 -1.451949 8.134100 7.125000 0.000000 0.000000 
1.072397 17.096850 32.647464 178.031627 2.019089 -173.173935 -23.764160 -18.893511 -29.873574 1.991562 13.816327 34.260160 0.620068 10.589637 10.376256 1.023500 -6.435900 -18.054600 32.782799 -1.949551 7.196295 -5.175411 -12.909302 46.096204 -1.116505 -17.783580 13.191680 -0.406800 4.094500 -11.342700 -1.120479 8.677312 -3.545760 -2.297199 4.513621 8.855605 6.432179 -11.046078 14.156779 -1.181800 -4.056800 26.920700 -60.103131 43.906744 63.440768 113.561188 -59.961144 -75.591665 1.422323 -0.304933 15.388487 -7.125000 0.000000 0.000000 90.439365 -1.723259 56.678573 -122.734806 52.312416 -80.655371 0.225015 -1.458358 8.290301 7.125000 0.000000 0.000000 
